<svg width="187" height="36" viewBox="0 0 187 36" fill="none" xmlns="http://www.w3.org/2000/svg">
<path d="M13.5641 7.1021V33.9631H8.50436V7.1021H0.234375V2.80263H21.7916V7.1021H13.5641Z" fill="white"/>
<path d="M26.3199 16.9994C26.816 15.6656 27.4679 14.6794 28.2758 14.0408C29.0978 13.4023 30.1112 13.083 31.3159 13.083C31.9679 13.083 32.6057 13.1611 33.2293 13.3172C33.8671 13.4733 34.4907 13.7003 35.1001 13.9983L33.4419 17.9146C33.045 17.6308 32.6128 17.4251 32.145 17.2974C31.6915 17.1555 31.1813 17.0845 30.6144 17.0845C29.0837 17.0845 27.9852 17.7018 27.3191 18.9363C26.653 20.1566 26.3199 22.2141 26.3199 25.1088V33.9631H21.7066V13.7429H26.3199V16.9994Z" fill="white"/>
<path d="M56.6999 33.9631H52.0866V31.3451C51.2645 32.5087 50.3008 33.3743 49.1953 33.9418C48.1039 34.5094 46.8496 34.7932 45.4323 34.7932C42.5835 34.7932 40.3371 33.8212 38.693 31.8772C37.0631 29.9191 36.2481 27.2443 36.2481 23.853C36.2481 20.6319 37.0844 18.0352 38.7568 16.0629C40.4292 14.0763 42.6119 13.083 45.3047 13.083C46.9488 13.083 48.352 13.4307 49.5141 14.126C50.6905 14.8071 51.548 15.7933 52.0866 17.0845V13.7854H56.6999V33.9631ZM52.2141 23.8104C52.2141 21.7245 51.7251 20.0998 50.7472 18.9363C49.7834 17.7727 48.4299 17.191 46.6866 17.191C44.9433 17.191 43.5685 17.794 42.5623 19.0001C41.5701 20.1921 41.0741 21.8523 41.0741 23.9807C41.0741 26.1233 41.556 27.7764 42.5197 28.94C43.4835 30.1035 44.8441 30.6853 46.6016 30.6853C48.2598 30.6853 49.6063 30.0539 50.6409 28.791C51.6897 27.5281 52.2141 25.8679 52.2141 23.8104Z" fill="white"/>
<path d="M70.1572 35.1763L59.5912 13.7854H64.6297L69.0305 23.9381C69.1722 24.2503 69.3423 24.7186 69.5407 25.3429C69.7391 25.9673 69.9446 26.7122 70.1572 27.5778C70.299 26.9676 70.4619 26.3646 70.6462 25.7686C70.8446 25.1584 71.0785 24.5483 71.3478 23.9381L75.7272 13.7854H80.7445L70.1572 35.1763Z" fill="white"/>
<path d="M103.067 24.5554H86.9523C87.0657 26.4426 87.6255 27.9183 88.6318 28.9826C89.6381 30.0326 90.9775 30.5576 92.6499 30.5576C94.1381 30.5576 95.3782 30.2454 96.3703 29.6211C97.3624 28.9967 98.227 27.9893 98.964 26.5987L102.854 28.7697C101.721 30.7988 100.318 32.31 98.6451 33.3033C96.9727 34.2966 95.0097 34.7932 92.7562 34.7932C89.5247 34.7932 86.9523 33.807 85.0389 31.8347C83.1256 29.8623 82.1689 27.2301 82.1689 23.9381C82.1689 20.7738 83.1539 18.1771 85.124 16.148C87.1082 14.1047 89.6523 13.083 92.7562 13.083C96.0018 13.083 98.5317 14.0125 100.346 15.8713C102.16 17.7302 103.067 20.334 103.067 23.6827V24.5554ZM98.2837 21.4478C98.0994 20.0005 97.5467 18.9008 96.6254 18.1488C95.7042 17.3825 94.4428 16.9994 92.8412 16.9994C91.3247 16.9994 90.1058 17.3683 89.1846 18.1062C88.2633 18.844 87.6184 19.9579 87.2499 21.4478H98.2837Z" fill="white"/>
<path d="M108.106 33.9631V0.972168H112.719V33.9631H108.106Z" fill="white"/>
<path d="M119.543 33.9631V0.972168H124.157V33.9631H119.543Z" fill="white"/>
<path d="M130.364 5.05879C130.364 4.27836 130.648 3.60435 131.215 3.03676C131.796 2.46918 132.483 2.18538 133.277 2.18538C134.099 2.18538 134.779 2.46208 135.318 3.01548C135.871 3.55469 136.147 4.23579 136.147 5.05879C136.147 5.88179 135.871 6.57708 135.318 7.14467C134.765 7.69807 134.085 7.97477 133.277 7.97477C132.483 7.97477 131.796 7.69097 131.215 7.12339C130.648 6.54161 130.364 5.85341 130.364 5.05879ZM130.981 33.9631V13.7854H135.594V33.9631H130.981Z" fill="white"/>
<path d="M161.17 33.9631H156.556V31.3451C155.734 32.5087 154.77 33.3743 153.665 33.9418C152.574 34.5094 151.319 34.7932 149.902 34.7932C147.053 34.7932 144.807 33.8212 143.163 31.8772C141.533 29.9191 140.718 27.2443 140.718 23.853C140.718 20.6319 141.554 18.0352 143.227 16.0629C144.899 14.0763 147.082 13.083 149.774 13.083C151.419 13.083 152.822 13.4307 153.984 14.126C155.16 14.8071 156.018 15.7933 156.556 17.0845V13.7854H161.17V33.9631ZM156.684 23.8104C156.684 21.7245 156.195 20.0998 155.217 18.9363C154.253 17.7727 152.9 17.191 151.156 17.191C149.413 17.191 148.038 17.794 147.032 19.0001C146.04 20.1921 145.544 21.8523 145.544 23.9807C145.544 26.1233 146.026 27.7764 146.989 28.94C147.953 30.1035 149.314 30.6853 151.071 30.6853C152.73 30.6853 154.076 30.0539 155.111 28.791C156.159 27.5281 156.684 25.8679 156.684 23.8104Z" fill="white"/>
<path d="M167.547 33.9631V13.7854H171.884V17.0845C172.806 15.6939 173.89 14.6794 175.137 14.0408C176.384 13.4023 177.901 13.083 179.687 13.083C181.189 13.083 182.465 13.3243 183.513 13.8067C184.576 14.275 185.406 14.9774 186.001 15.9139C186.355 16.4673 186.61 17.1129 186.766 17.8508C186.922 18.5886 187 19.8799 187 21.7245V33.9631H182.344V23.5976C182.344 20.9441 182.018 19.1846 181.366 18.319C180.728 17.4393 179.588 16.9994 177.943 16.9994C176.866 16.9994 175.903 17.198 175.052 17.5954C174.216 17.9927 173.557 18.5532 173.075 19.2768C172.735 19.7593 172.494 20.3836 172.352 21.1499C172.225 21.9019 172.161 23.108 172.161 24.7682V33.9631H167.547Z" fill="white"/>
</svg>
